<svg xmlns="http://www.w3.org/2000/svg" xmlns:xlink="http://www.w3.org/1999/xlink" width="500" zoomAndPan="magnify" viewBox="0 0 375 374.999991" height="500" preserveAspectRatio="xMidYMid meet" version="1.0"><defs><clipPath id="c03d68b1c2"><path d="M 13.1875 71 L 361 71 L 361 292 L 13.1875 292 Z M 13.1875 71 " clip-rule="nonzero"/></clipPath></defs><g clip-path="url(#c03d68b1c2)"><path fill="#ffffff" d="M 357.757812 106.257812 C 355.453125 105.179688 353.046875 104.410156 350.546875 103.945312 C 335.425781 100.992188 320.289062 98.210938 305.167969 95.257812 C 271.402344 88.738281 237.496094 82.796875 204.214844 73.878906 C 197.007812 71.707031 189.65625 70.96875 182.160156 71.671875 C 176.042969 72.402344 169.855469 72.90625 163.84375 74.140625 C 134.839844 80.136719 105.625 85.941406 76.6875 92.597656 C 57.46875 97.011719 38.542969 102.640625 19.511719 107.855469 C 17.339844 108.675781 15.230469 109.636719 13.1875 110.742188 C 14.84375 112.019531 16.582031 113.175781 18.398438 114.214844 C 24.359375 116.859375 30.390625 119.328125 36.386719 121.898438 C 38.003906 122.59375 39.585938 123.394531 40.558594 123.863281 C 40.558594 134.8125 40.886719 145.152344 40.382812 155.441406 C 40.4375 157.433594 40.101562 159.363281 39.378906 161.222656 C 38.65625 163.082031 37.601562 164.726562 36.214844 166.164062 C 33.988281 168.195312 32.839844 171.550781 34.804688 174.085938 C 37.585938 177.667969 36.90625 180.882812 35.65625 184.601562 C 34.753906 187.371094 34.210938 190.210938 34.023438 193.117188 C 32.839844 208.757812 31.554688 224.539062 30.789062 240.265625 C 30.0625 255.472656 29.921875 270.695312 29.539062 285.902344 C 29.417969 290.402344 29.992188 290.960938 34.371094 290.875 C 36.179688 290.710938 37.980469 290.773438 39.777344 291.066406 C 43.703125 291.972656 47.648438 292.066406 51.609375 291.34375 C 56.683594 290.507812 57 290.125 56.40625 285.191406 C 55.382812 276.5 54.183594 267.933594 53.800781 259.261719 C 53.261719 247.496094 53.609375 235.695312 53.246094 223.929688 C 52.773438 209.089844 53.367188 194.175781 50.203125 179.527344 C 50.042969 178.296875 50.261719 177.136719 50.863281 176.050781 C 53.332031 171.621094 52.183594 167.988281 49.367188 164.042969 C 45.71875 158.949219 42.679688 153.511719 44.257812 146.664062 C 44.746094 143.429688 44.910156 140.179688 44.746094 136.914062 C 44.746094 133.351562 44.746094 129.789062 44.746094 125.566406 L 106.441406 148.28125 C 106.023438 150.644531 105.796875 152.78125 105.257812 154.847656 C 101.28125 170.488281 97.300781 186.128906 93.09375 201.632812 C 91.511719 207.59375 91.789062 208.046875 97.648438 210.320312 C 125.871094 220.820312 152.21875 234.894531 175.644531 253.839844 C 179.449219 256.914062 183.066406 260.234375 186.921875 263.257812 C 191.492188 266.855469 193.40625 266.734375 198.027344 263.363281 C 227.796875 240.996094 260.835938 224.574219 294.949219 210.132812 C 300.164062 207.941406 300.164062 208.113281 298.6875 202.746094 C 293.820312 185.121094 288.972656 167.5 284.035156 149.53125 C 285.253906 148.714844 285.773438 148.246094 286.417969 147.933594 L 352.457031 116.128906 C 354.464844 115.296875 356.40625 114.328125 358.277344 113.226562 C 361.773438 110.914062 361.546875 108.066406 357.757812 106.257812 Z M 357.757812 106.257812 " fill-opacity="1" fill-rule="nonzero"/></g></svg>