<svg xmlns="http://www.w3.org/2000/svg" xmlns:xlink="http://www.w3.org/1999/xlink" width="200" zoomAndPan="magnify" viewBox="0 0 150 44.999999" height="60" preserveAspectRatio="xMidYMid meet" version="1.0"><defs><g/></defs><g fill="#000000" fill-opacity="1"><g transform="translate(0.184073, 37.689874)"><g><path d="M 4.109375 -2.734375 C 2.035156 -4.992188 1 -7.765625 1 -11.046875 C 1 -14.335938 2.035156 -17.117188 4.109375 -19.390625 C 6.179688 -21.660156 8.8125 -22.796875 12 -22.796875 C 14.9375 -22.796875 17.359375 -21.875 19.265625 -20.03125 L 19.265625 -22.15625 L 26.90625 -22.15625 L 26.90625 0 L 19.34375 0 L 19.34375 -2.5 L 19.265625 -2.5 C 17.359375 -0.40625 14.9375 0.640625 12 0.640625 C 8.8125 0.640625 6.179688 -0.484375 4.109375 -2.734375 Z M 10.59375 -14.8125 C 9.601562 -13.832031 9.109375 -12.578125 9.109375 -11.046875 C 9.109375 -9.523438 9.582031 -8.28125 10.53125 -7.3125 C 11.488281 -6.351562 12.742188 -5.875 14.296875 -5.875 C 15.796875 -5.875 17.023438 -6.363281 17.984375 -7.34375 C 18.953125 -8.320312 19.4375 -9.5625 19.4375 -11.0625 C 19.4375 -12.582031 18.9375 -13.832031 17.9375 -14.8125 C 16.945312 -15.789062 15.734375 -16.28125 14.296875 -16.28125 C 12.828125 -16.28125 11.59375 -15.789062 10.59375 -14.8125 Z M 10.59375 -14.8125 "/></g></g></g><g fill="#000000" fill-opacity="1"><g transform="translate(29.68128, 37.689874)"><g><path d="M 3.328125 -34.5 C 4.222656 -35.394531 5.285156 -35.84375 6.515625 -35.84375 C 7.753906 -35.84375 8.820312 -35.394531 9.71875 -34.5 C 10.613281 -33.613281 11.0625 -32.550781 11.0625 -31.3125 C 11.0625 -30.070312 10.613281 -29.003906 9.71875 -28.109375 C 8.820312 -27.222656 7.753906 -26.78125 6.515625 -26.78125 C 5.285156 -26.78125 4.222656 -27.222656 3.328125 -28.109375 C 2.429688 -29.003906 1.984375 -30.070312 1.984375 -31.3125 C 1.984375 -32.550781 2.429688 -33.613281 3.328125 -34.5 Z M 2.59375 -22.15625 L 2.59375 0 L 10.234375 0 L 10.234375 -22.15625 Z M 2.59375 -22.15625 "/></g></g></g><g fill="#000000" fill-opacity="1"><g transform="translate(42.723966, 37.689874)"><g><path d="M 2.59375 0 L 2.59375 -22.15625 L 10.234375 -22.15625 L 10.234375 -19.828125 L 10.328125 -19.828125 C 12.304688 -21.804688 14.421875 -22.796875 16.671875 -22.796875 C 18.285156 -22.796875 19.796875 -22.460938 21.203125 -21.796875 C 22.617188 -21.140625 23.6875 -20.125 24.40625 -18.75 C 26.644531 -21.445312 29.09375 -22.796875 31.75 -22.796875 C 34.101562 -22.796875 36.128906 -22.132812 37.828125 -20.8125 C 39.523438 -19.488281 40.375 -17.414062 40.375 -14.59375 L 40.375 0 L 32.734375 0 L 32.734375 -12.53125 C 32.734375 -13.707031 32.410156 -14.691406 31.765625 -15.484375 C 31.117188 -16.273438 30.144531 -16.671875 28.84375 -16.671875 C 27.726562 -16.671875 26.875 -16.332031 26.28125 -15.65625 C 25.6875 -14.976562 25.363281 -14.164062 25.3125 -13.21875 L 25.3125 0 L 17.65625 0 L 17.65625 -12.53125 C 17.65625 -13.707031 17.332031 -14.691406 16.6875 -15.484375 C 16.039062 -16.273438 15.070312 -16.671875 13.78125 -16.671875 C 12.59375 -16.671875 11.703125 -16.300781 11.109375 -15.5625 C 10.523438 -14.832031 10.234375 -13.960938 10.234375 -12.953125 L 10.234375 0 Z M 2.59375 0 "/></g></g></g><g fill="#000000" fill-opacity="1"><g transform="translate(85.263859, 37.689874)"><g><path d="M 4.109375 -2.734375 C 2.035156 -4.992188 1 -7.765625 1 -11.046875 C 1 -14.335938 2.035156 -17.117188 4.109375 -19.390625 C 6.179688 -21.660156 8.8125 -22.796875 12 -22.796875 C 14.9375 -22.796875 17.359375 -21.875 19.265625 -20.03125 L 19.265625 -22.15625 L 26.90625 -22.15625 L 26.90625 0 L 19.34375 0 L 19.34375 -2.5 L 19.265625 -2.5 C 17.359375 -0.40625 14.9375 0.640625 12 0.640625 C 8.8125 0.640625 6.179688 -0.484375 4.109375 -2.734375 Z M 10.59375 -14.8125 C 9.601562 -13.832031 9.109375 -12.578125 9.109375 -11.046875 C 9.109375 -9.523438 9.582031 -8.28125 10.53125 -7.3125 C 11.488281 -6.351562 12.742188 -5.875 14.296875 -5.875 C 15.796875 -5.875 17.023438 -6.363281 17.984375 -7.34375 C 18.953125 -8.320312 19.4375 -9.5625 19.4375 -11.0625 C 19.4375 -12.582031 18.9375 -13.832031 17.9375 -14.8125 C 16.945312 -15.789062 15.734375 -16.28125 14.296875 -16.28125 C 12.828125 -16.28125 11.59375 -15.789062 10.59375 -14.8125 Z M 10.59375 -14.8125 "/></g></g></g><g fill="#000000" fill-opacity="1"><g transform="translate(114.761066, 37.689874)"><g><path d="M 2.59375 0 L 2.59375 -22.15625 L 10.234375 -22.15625 L 10.234375 -18.953125 L 10.328125 -18.953125 C 10.378906 -19.066406 10.46875 -19.210938 10.59375 -19.390625 C 10.726562 -19.566406 11.007812 -19.867188 11.4375 -20.296875 C 11.875 -20.734375 12.335938 -21.125 12.828125 -21.46875 C 13.316406 -21.8125 13.945312 -22.117188 14.71875 -22.390625 C 15.5 -22.660156 16.296875 -22.796875 17.109375 -22.796875 C 17.941406 -22.796875 18.757812 -22.679688 19.5625 -22.453125 C 20.363281 -22.222656 20.953125 -21.992188 21.328125 -21.765625 L 21.9375 -21.421875 L 18.75 -14.9375 C 17.789062 -15.75 16.460938 -16.15625 14.765625 -16.15625 C 13.847656 -16.15625 13.054688 -15.953125 12.390625 -15.546875 C 11.734375 -15.140625 11.265625 -14.648438 10.984375 -14.078125 C 10.710938 -13.503906 10.519531 -13.015625 10.40625 -12.609375 C 10.289062 -12.203125 10.234375 -11.882812 10.234375 -11.65625 L 10.234375 0 Z M 2.59375 0 "/></g></g></g><g fill="#fbbd35" fill-opacity="1"><g transform="translate(136.281819, 37.689874)"><g><path d="M 7.515625 -9.234375 C 8.898438 -9.234375 10.070312 -8.75 11.03125 -7.78125 C 12 -6.820312 12.484375 -5.65625 12.484375 -4.28125 C 12.484375 -2.925781 12 -1.765625 11.03125 -0.796875 C 10.070312 0.160156 8.898438 0.640625 7.515625 0.640625 C 6.160156 0.640625 5 0.160156 4.03125 -0.796875 C 3.070312 -1.765625 2.59375 -2.925781 2.59375 -4.28125 C 2.59375 -5.65625 3.070312 -6.820312 4.03125 -7.78125 C 5 -8.75 6.160156 -9.234375 7.515625 -9.234375 Z M 7.515625 -9.234375 "/></g></g></g></svg>